<svg xmlns="http://www.w3.org/2000/svg" version="1.1" xmlns:xlink="http://www.w3.org/1999/xlink" xmlns:svgjs="http://svgjs.com/svgjs" width="1000" height="400" preserveAspectRatio="none" viewBox="0 0 1000 400"><g mask="url(&quot;#SvgjsMask1081&quot;)" fill="none"><rect width="1000" height="400" x="0" y="0" fill="rgba(21, 67, 96, 1)"></rect><path d="M0,202.837C43.65,201.505,88.922,218.508,128.319,199.668C169.47,179.989,204.226,142.884,216.963,99.084C229.22,56.935,207.766,13.88,194.516,-27.967C183.248,-63.554,166.009,-94.915,145.633,-126.191C122.063,-162.37,107.439,-212.642,66.093,-225.092C24.763,-237.537,-12.157,-193.399,-54.771,-186.534C-106.505,-178.2,-166.264,-211.59,-208.685,-180.827C-250.665,-150.383,-254.38,-88.946,-260.37,-37.436C-266.236,13.015,-265.949,65.686,-242.594,110.789C-219.764,154.878,-179.874,190.045,-133.454,207.658C-90.975,223.776,-45.413,204.223,0,202.837" fill="#0f3045"></path><path d="M1000 754.443C1068.002 754.38 1128.994 724.405 1191.929 698.648 1268.888 667.1510000000001 1364.516 656.9839999999999 1409.313 586.927 1454.742 515.8820000000001 1446.033 420.103 1421.661 339.374 1398.9850000000001 264.26300000000003 1332.1480000000001 215.991 1279.709 157.631 1228.336 100.457 1192.421 16.750999999999976 1117.27 0.6150000000000091 1042.272-15.488 976.811 49.668000000000006 905.224 77.22399999999999 840.572 102.11000000000001 767.162 107.012 716.9300000000001 154.719 664.367 204.64 642.316 275.992 622.51 345.725 600.1089999999999 424.594 556.6030000000001 512.4929999999999 594.692 585.098 632.89 657.9110000000001 731.9739999999999 667.3050000000001 807.842 699.004 870.625 725.236 931.957 754.506 1000 754.443" fill="#1b567b"></path></g><defs><mask id="SvgjsMask1081"><rect width="1000" height="400" fill="#ffffff"></rect></mask></defs></svg>